<svg width="1512" height="608" viewBox="0 0 1512 608" fill="none" xmlns="http://www.w3.org/2000/svg">
<g clip-path="url(#clip0_823_6157)">
<rect width="1512" height="608" fill="#2385C8"/>
<path d="M-13.5 336C128.5 257.5 367.893 316.016 505 358C738.5 429.5 871.541 329.29 956.5 277.5C1029.5 233 1092.83 136.167 1119.5 107.5C1134.17 88.8333 1178 45.3 1236 20.5C1294 -4.30004 1298.5 5.5 1302 -1" stroke="#52A3DA" stroke-width="4"/>
<path d="M698.625 47.188H650.375V103.375H594.083V151.625H650.375V207.812H698.625V151.625H754.917V103.375H698.625V47.188Z" fill="#52A3DA"/>
<path d="M107.25 28.8777H86.7499V52.7499H62.8333V73.2499H86.7499V97.1222H107.25V73.2499H131.167V52.7499H107.25V28.8777Z" fill="#52A3DA"/>
<path d="M685.25 491.878H664.75V515.75H640.833V536.25H664.75V560.122H685.25V536.25H709.167V515.75H685.25V491.878Z" fill="#52A3DA"/>
<path d="M1433.44 47H1409.96V70.8722H1382.56V91.3722H1409.96V115.244H1433.44V91.3722H1460.84V70.8722H1433.44V47Z" fill="#52A3DA"/>
</g>
<defs>
<clipPath id="clip0_823_6157">
<rect width="1512" height="608" fill="white"/>
</clipPath>
</defs>
</svg>
