<svg width="28" height="28" viewBox="0 0 28 28" fill="none" xmlns="http://www.w3.org/2000/svg">
<path d="M14 0.875C6.76375 0.875 0.875 6.76375 0.875 14C0.875 21.2362 6.76375 27.125 14 27.125C21.2362 27.125 27.125 21.2362 27.125 14C27.125 6.76375 21.2362 0.875 14 0.875ZM14 3.0625C20.0539 3.0625 24.9375 7.94609 24.9375 14C24.9402 16.6184 24.0012 19.1505 22.2921 21.1341C20.5829 23.1177 18.2175 24.4207 15.6275 24.8052V17.1894H18.7425L19.2314 14.0252H15.6275V12.297C15.6275 10.9845 16.0595 9.8175 17.2878 9.8175H19.262V7.05688C18.9153 7.00984 18.1814 6.90812 16.7945 6.90812C13.8983 6.90812 12.2008 8.43719 12.2008 11.9219V14.0252H9.22359V17.1894H12.2008V24.7778C9.6466 24.3574 7.3251 23.0426 5.65107 21.0682C3.97703 19.0938 3.05953 16.5885 3.0625 14C3.0625 7.94609 7.94609 3.0625 14 3.0625Z" fill="white"/>
</svg>
