<svg width="24" height="26" viewBox="0 0 24 26" fill="none" xmlns="http://www.w3.org/2000/svg">
<path d="M23.1959 5.71086C21.8109 5.70938 20.483 5.18748 19.5036 4.25966C18.5242 3.33183 17.9733 2.07386 17.9717 0.761719C17.9717 0.559698 17.887 0.365952 17.7362 0.223102C17.5854 0.0802525 17.3809 0 17.1677 0H12.8611C12.6479 0 12.4434 0.0802525 12.2926 0.223102C12.1418 0.365952 12.0571 0.559698 12.0571 0.761719V17.4875C12.0571 18.063 11.8769 18.6256 11.5394 19.1041C11.2019 19.5826 10.7222 19.9556 10.161 20.1758C9.59976 20.396 8.98219 20.4537 8.38638 20.3414C7.79056 20.2291 7.24328 19.952 6.81372 19.5451C6.38416 19.1381 6.09163 18.6196 5.97312 18.0552C5.8546 17.4908 5.91543 16.9057 6.1479 16.374C6.38038 15.8423 6.77406 15.3879 7.27916 15.0682C7.78427 14.7484 8.37811 14.5778 8.98559 14.5778C9.19884 14.5778 9.40336 14.4975 9.55415 14.3547C9.70494 14.2118 9.78965 14.0181 9.78965 13.8161V9.73629C9.78965 9.53427 9.70494 9.34052 9.55415 9.19767C9.40336 9.05482 9.19884 8.97457 8.98559 8.97457C4.031 8.97457 0 12.7933 0 17.4875C0 22.1818 4.031 26 8.98559 26C13.9402 26 17.9717 22.1812 17.9717 17.4875V10.0836C19.5796 10.8952 21.3741 11.3179 23.1959 11.3141C23.4092 11.3141 23.6137 11.2338 23.7645 11.091C23.9153 10.9481 24 10.7544 24 10.5523V6.47258C24 6.27056 23.9153 6.07681 23.7645 5.93396C23.6137 5.79111 23.4092 5.71086 23.1959 5.71086ZM22.3919 9.75914C20.6761 9.6257 19.0315 9.05063 17.6356 8.09605C17.5155 8.01421 17.3739 7.96533 17.2264 7.95481C17.0789 7.94429 16.9312 7.97253 16.7995 8.03642C16.6678 8.10031 16.5573 8.19738 16.4801 8.31694C16.4029 8.4365 16.3621 8.57391 16.362 8.71406V17.4875C16.362 21.3413 13.052 24.4766 8.98399 24.4766C4.916 24.4766 1.60811 21.3413 1.60811 17.4875C1.60811 13.8907 4.49039 10.92 8.18154 10.5391V13.1193C7.30346 13.2643 6.48733 13.6438 5.82915 14.2132C5.17097 14.7826 4.6981 15.5182 4.46616 16.3335C4.23421 17.1488 4.25285 18.0098 4.51986 18.8154C4.78688 19.621 5.29117 20.3377 5.97343 20.881C6.65569 21.4244 7.48755 21.7719 8.37116 21.8826C9.25478 21.9934 10.1534 21.8628 10.9614 21.5062C11.7693 21.1497 12.453 20.582 12.932 19.8699C13.411 19.1578 13.6653 18.3309 13.6652 17.4865V1.52344H16.4102C16.5933 2.96616 17.2824 4.30889 18.367 5.3364C19.4516 6.36391 20.869 7.01669 22.3919 7.19012V9.75914Z" fill="white"/>
</svg>
