<svg width="26" height="24" viewBox="0 0 26 24" fill="none" xmlns="http://www.w3.org/2000/svg">
<path d="M8.01795 23.654H7.90423C5.61331 23.6334 3.35551 23.0908 1.29432 22.0654C0.915169 21.8828 0.602989 21.5805 0.403477 21.2029C0.203964 20.8253 0.127598 20.3921 0.185557 19.9667C0.248592 19.5385 0.441975 19.1416 0.738098 18.8328C1.03422 18.5239 1.41794 18.3189 1.83448 18.247C3.11184 18.0722 4.34069 17.6308 5.44506 16.9499C3.5277 15.4129 2.05162 13.3728 1.17323 11.0456C0.29485 8.71849 0.0468931 6.19106 0.45564 3.73118C0.51106 3.34154 0.674498 2.97644 0.926504 2.67931C1.17851 2.38218 1.50847 2.16553 1.87713 2.05516C2.23579 1.93967 2.61964 1.93474 2.98101 2.04097C3.34238 2.1472 3.66536 2.35991 3.90985 2.6527C4.74 3.76876 5.78322 4.69972 6.97587 5.38878C8.16851 6.07785 9.48557 6.51058 10.8467 6.66057C10.9117 4.94353 11.6314 3.32123 12.851 2.1426C13.46 1.54474 14.1789 1.07711 14.9659 0.766968C15.7529 0.456827 16.5923 0.310375 17.435 0.336148C18.2778 0.361921 19.1071 0.559402 19.8747 0.917084C20.6423 1.27477 21.3327 1.78549 21.9059 2.41951C22.0552 2.55486 22.2407 2.64111 22.4384 2.6671C22.6361 2.69308 22.8368 2.6576 23.0146 2.56525C23.3536 2.40136 23.731 2.33967 24.1028 2.38737C24.4746 2.43507 24.8256 2.59019 25.1147 2.83465C25.4038 3.0791 25.6191 3.4028 25.7355 3.76799C25.852 4.13317 25.8647 4.52477 25.7723 4.89711C25.4445 6.28181 24.8232 7.57552 23.9528 8.68637C23.761 12.8323 21.9782 16.7324 18.9932 19.5362C16.0082 22.34 12.063 23.8202 8.01795 23.654ZM8.01795 20.7391H8.13167C9.78439 20.7974 11.432 20.5188 12.9788 19.9193C14.5257 19.3199 15.9412 18.4115 17.1431 17.247C18.345 16.0825 19.3095 14.6849 19.9807 13.1354C20.6519 11.5858 21.0163 9.91507 21.053 8.22C21.0765 7.75545 21.2633 7.31536 21.5789 6.9812C21.9256 6.53122 22.2213 6.04228 22.4603 5.52379C21.9482 5.52479 21.4416 5.41497 20.9738 5.2015C20.5059 4.98803 20.0873 4.67572 19.7452 4.28499C19.4163 3.9506 19.0256 3.68684 18.596 3.50916C18.1664 3.33148 17.7066 3.24346 17.2434 3.25023C16.7756 3.23783 16.31 3.32028 15.8733 3.49285C15.4367 3.66542 15.0376 3.92472 14.6989 4.25585C14.242 4.70036 13.907 5.2601 13.7274 5.87906C13.5478 6.49802 13.5299 7.15449 13.6755 7.78277L14.0451 9.44422L12.3819 9.56081C10.6777 9.70329 8.96361 9.46428 7.3584 8.86033C5.75319 8.25637 4.2952 7.30191 3.08539 6.06303C3.0335 7.98156 3.5016 9.87725 4.43764 11.5394C5.37368 13.2014 6.74099 14.5648 8.38754 15.4779L9.73795 16.2649L8.84241 17.5766C7.87394 18.8788 6.54697 19.8535 5.03283 20.3748C6.00415 20.6244 7.0024 20.7468 8.00373 20.7391H8.01795Z" fill="white"/>
</svg>
